<mxfile host="65bd71144e">
    <diagram id="nyDbmdGjcWxSjNMNHw8y" name="Strona-1">
        <mxGraphModel dx="1052" dy="800" grid="1" gridSize="10" guides="1" tooltips="1" connect="1" arrows="1" fold="1" page="1" pageScale="1" pageWidth="827" pageHeight="1169" math="0" shadow="0">
            <root>
                <mxCell id="0"/>
                <mxCell id="1" parent="0"/>
                <mxCell id="y5BnEugfM6W_hWMbUE9e-1" value="Advertising Portal" style="rounded=0;whiteSpace=wrap;html=1;labelPosition=center;verticalLabelPosition=top;align=center;verticalAlign=bottom;" parent="1" vertex="1">
                    <mxGeometry x="190" y="100" width="460" height="500" as="geometry"/>
                </mxCell>
                <mxCell id="3" style="edgeStyle=none;html=1;endArrow=none;endFill=0;" edge="1" parent="1" source="y5BnEugfM6W_hWMbUE9e-2" target="2">
                    <mxGeometry relative="1" as="geometry"/>
                </mxCell>
                <mxCell id="y5BnEugfM6W_hWMbUE9e-2" value="Logged In User" style="shape=umlActor;verticalLabelPosition=bottom;verticalAlign=top;html=1;outlineConnect=0;" parent="1" vertex="1">
                    <mxGeometry x="60" y="250" width="60" height="100" as="geometry"/>
                </mxCell>
                <mxCell id="y5BnEugfM6W_hWMbUE9e-5" value="Login" style="ellipse;whiteSpace=wrap;html=1;" parent="1" vertex="1">
                    <mxGeometry x="200" y="220" width="120" height="80" as="geometry"/>
                </mxCell>
                <mxCell id="y5BnEugfM6W_hWMbUE9e-6" value="Register" style="ellipse;whiteSpace=wrap;html=1;" parent="1" vertex="1">
                    <mxGeometry x="200" y="120" width="120" height="80" as="geometry"/>
                </mxCell>
                <mxCell id="y5BnEugfM6W_hWMbUE9e-7" value="Create advert" style="ellipse;whiteSpace=wrap;html=1;" parent="1" vertex="1">
                    <mxGeometry x="390" y="160" width="120" height="80" as="geometry"/>
                </mxCell>
                <mxCell id="y5BnEugfM6W_hWMbUE9e-8" value="Watch adverts" style="ellipse;whiteSpace=wrap;html=1;" parent="1" vertex="1">
                    <mxGeometry x="390" y="260" width="120" height="80" as="geometry"/>
                </mxCell>
                <mxCell id="y5BnEugfM6W_hWMbUE9e-9" value="Delete advert" style="ellipse;whiteSpace=wrap;html=1;" parent="1" vertex="1">
                    <mxGeometry x="390" y="440" width="120" height="80" as="geometry"/>
                </mxCell>
                <mxCell id="y5BnEugfM6W_hWMbUE9e-10" value="Edit advert" style="ellipse;whiteSpace=wrap;html=1;" parent="1" vertex="1">
                    <mxGeometry x="390" y="350" width="120" height="80" as="geometry"/>
                </mxCell>
                <mxCell id="y5BnEugfM6W_hWMbUE9e-11" value="Write comments" style="ellipse;whiteSpace=wrap;html=1;" parent="1" vertex="1">
                    <mxGeometry x="200" y="400" width="120" height="80" as="geometry"/>
                </mxCell>
                <mxCell id="y5BnEugfM6W_hWMbUE9e-12" value="Accounts Management" style="ellipse;whiteSpace=wrap;html=1;" parent="1" vertex="1">
                    <mxGeometry x="530" y="350" width="120" height="80" as="geometry"/>
                </mxCell>
                <mxCell id="y5BnEugfM6W_hWMbUE9e-13" value="Adverts Management" style="ellipse;whiteSpace=wrap;html=1;" parent="1" vertex="1">
                    <mxGeometry x="200" y="310" width="120" height="80" as="geometry"/>
                </mxCell>
                <mxCell id="y5BnEugfM6W_hWMbUE9e-15" value="Administrator" style="shape=umlActor;verticalLabelPosition=bottom;verticalAlign=top;html=1;outlineConnect=0;" parent="1" vertex="1">
                    <mxGeometry x="680" y="340" width="60" height="100" as="geometry"/>
                </mxCell>
                <mxCell id="y5BnEugfM6W_hWMbUE9e-17" value="" style="endArrow=none;html=1;rounded=0;" parent="1" source="y5BnEugfM6W_hWMbUE9e-2" target="y5BnEugfM6W_hWMbUE9e-6" edge="1">
                    <mxGeometry width="50" height="50" relative="1" as="geometry">
                        <mxPoint x="110" y="330" as="sourcePoint"/>
                        <mxPoint x="160" y="280" as="targetPoint"/>
                    </mxGeometry>
                </mxCell>
                <mxCell id="y5BnEugfM6W_hWMbUE9e-18" value="" style="endArrow=none;html=1;rounded=0;entryX=0;entryY=1;entryDx=0;entryDy=0;" parent="1" source="y5BnEugfM6W_hWMbUE9e-2" target="y5BnEugfM6W_hWMbUE9e-5" edge="1">
                    <mxGeometry width="50" height="50" relative="1" as="geometry">
                        <mxPoint x="20" y="320" as="sourcePoint"/>
                        <mxPoint x="70" y="270" as="targetPoint"/>
                    </mxGeometry>
                </mxCell>
                <mxCell id="y5BnEugfM6W_hWMbUE9e-20" value="" style="endArrow=none;html=1;rounded=0;entryX=0;entryY=0.5;entryDx=0;entryDy=0;" parent="1" source="y5BnEugfM6W_hWMbUE9e-2" target="y5BnEugfM6W_hWMbUE9e-13" edge="1">
                    <mxGeometry width="50" height="50" relative="1" as="geometry">
                        <mxPoint x="320" y="430" as="sourcePoint"/>
                        <mxPoint x="370" y="380" as="targetPoint"/>
                    </mxGeometry>
                </mxCell>
                <mxCell id="y5BnEugfM6W_hWMbUE9e-24" value="" style="endArrow=none;html=1;rounded=0;" parent="1" source="y5BnEugfM6W_hWMbUE9e-2" target="y5BnEugfM6W_hWMbUE9e-11" edge="1">
                    <mxGeometry width="50" height="50" relative="1" as="geometry">
                        <mxPoint x="320" y="430" as="sourcePoint"/>
                        <mxPoint x="370" y="380" as="targetPoint"/>
                    </mxGeometry>
                </mxCell>
                <mxCell id="y5BnEugfM6W_hWMbUE9e-25" value="" style="endArrow=classic;html=1;rounded=0;dashed=1;" parent="1" source="y5BnEugfM6W_hWMbUE9e-13" target="y5BnEugfM6W_hWMbUE9e-7" edge="1">
                    <mxGeometry width="50" height="50" relative="1" as="geometry">
                        <mxPoint x="320" y="430" as="sourcePoint"/>
                        <mxPoint x="370" y="380" as="targetPoint"/>
                    </mxGeometry>
                </mxCell>
                <mxCell id="y5BnEugfM6W_hWMbUE9e-26" value="&amp;lt;&amp;lt;include&amp;gt;&amp;gt;" style="edgeLabel;html=1;align=center;verticalAlign=middle;resizable=0;points=[];" parent="y5BnEugfM6W_hWMbUE9e-25" vertex="1" connectable="0">
                    <mxGeometry x="0.4528" relative="1" as="geometry">
                        <mxPoint as="offset"/>
                    </mxGeometry>
                </mxCell>
                <mxCell id="y5BnEugfM6W_hWMbUE9e-27" value="" style="endArrow=classic;html=1;rounded=0;dashed=1;" parent="1" source="y5BnEugfM6W_hWMbUE9e-13" target="y5BnEugfM6W_hWMbUE9e-8" edge="1">
                    <mxGeometry width="50" height="50" relative="1" as="geometry">
                        <mxPoint x="304.8084061590953" y="327.41933183508695" as="sourcePoint"/>
                        <mxPoint x="395.2285728183997" y="242.59821298275028" as="targetPoint"/>
                    </mxGeometry>
                </mxCell>
                <mxCell id="y5BnEugfM6W_hWMbUE9e-28" value="&amp;lt;&amp;lt;include&amp;gt;&amp;gt;" style="edgeLabel;html=1;align=center;verticalAlign=middle;resizable=0;points=[];" parent="y5BnEugfM6W_hWMbUE9e-27" vertex="1" connectable="0">
                    <mxGeometry x="0.4528" relative="1" as="geometry">
                        <mxPoint x="-25" as="offset"/>
                    </mxGeometry>
                </mxCell>
                <mxCell id="y5BnEugfM6W_hWMbUE9e-29" value="" style="endArrow=classic;html=1;rounded=0;dashed=1;" parent="1" source="y5BnEugfM6W_hWMbUE9e-13" target="y5BnEugfM6W_hWMbUE9e-10" edge="1">
                    <mxGeometry width="50" height="50" relative="1" as="geometry">
                        <mxPoint x="314.8084061590953" y="337.41933183508695" as="sourcePoint"/>
                        <mxPoint x="405.2285728183997" y="252.59821298275028" as="targetPoint"/>
                    </mxGeometry>
                </mxCell>
                <mxCell id="y5BnEugfM6W_hWMbUE9e-30" value="&amp;lt;&amp;lt;include&amp;gt;&amp;gt;" style="edgeLabel;html=1;align=center;verticalAlign=middle;resizable=0;points=[];" parent="y5BnEugfM6W_hWMbUE9e-29" vertex="1" connectable="0">
                    <mxGeometry x="0.4528" relative="1" as="geometry">
                        <mxPoint x="-12" y="-14" as="offset"/>
                    </mxGeometry>
                </mxCell>
                <mxCell id="y5BnEugfM6W_hWMbUE9e-31" value="" style="endArrow=classic;html=1;rounded=0;dashed=1;" parent="1" source="y5BnEugfM6W_hWMbUE9e-13" target="y5BnEugfM6W_hWMbUE9e-9" edge="1">
                    <mxGeometry width="50" height="50" relative="1" as="geometry">
                        <mxPoint x="324.8084061590953" y="347.41933183508695" as="sourcePoint"/>
                        <mxPoint x="415.2285728183997" y="262.5982129827503" as="targetPoint"/>
                    </mxGeometry>
                </mxCell>
                <mxCell id="y5BnEugfM6W_hWMbUE9e-32" value="&amp;lt;&amp;lt;include&amp;gt;&amp;gt;" style="edgeLabel;html=1;align=center;verticalAlign=middle;resizable=0;points=[];" parent="y5BnEugfM6W_hWMbUE9e-31" vertex="1" connectable="0">
                    <mxGeometry x="0.4528" relative="1" as="geometry">
                        <mxPoint x="-19" y="-22" as="offset"/>
                    </mxGeometry>
                </mxCell>
                <mxCell id="y5BnEugfM6W_hWMbUE9e-35" value="" style="endArrow=none;html=1;rounded=0;" parent="1" source="y5BnEugfM6W_hWMbUE9e-12" target="y5BnEugfM6W_hWMbUE9e-15" edge="1">
                    <mxGeometry width="50" height="50" relative="1" as="geometry">
                        <mxPoint x="350" y="670" as="sourcePoint"/>
                        <mxPoint x="400" y="620" as="targetPoint"/>
                    </mxGeometry>
                </mxCell>
                <mxCell id="2" value="Buy product" style="ellipse;whiteSpace=wrap;html=1;" vertex="1" parent="1">
                    <mxGeometry x="200" y="505" width="120" height="80" as="geometry"/>
                </mxCell>
                <mxCell id="4" value="Not Logged In User" style="shape=umlActor;verticalLabelPosition=bottom;verticalAlign=top;html=1;outlineConnect=0;" vertex="1" parent="1">
                    <mxGeometry x="680" y="150" width="60" height="100" as="geometry"/>
                </mxCell>
                <mxCell id="5" value="" style="endArrow=none;html=1;" edge="1" parent="1" source="y5BnEugfM6W_hWMbUE9e-8" target="4">
                    <mxGeometry width="50" height="50" relative="1" as="geometry">
                        <mxPoint x="390" y="330" as="sourcePoint"/>
                        <mxPoint x="440" y="280" as="targetPoint"/>
                    </mxGeometry>
                </mxCell>
            </root>
        </mxGraphModel>
    </diagram>
</mxfile>